<svg width="20" height="20" viewBox="0 0 20 20" fill="none" xmlns="http://www.w3.org/2000/svg">
<path d="M9.99988 20L8.99988 17H1.99988C1.44988 17 0.979211 16.8043 0.587878 16.413C0.195878 16.021 -0.00012207 15.55 -0.00012207 15V2C-0.00012207 1.45 0.195878 0.979 0.587878 0.587C0.979211 0.195667 1.44988 0 1.99988 0H7.99988L8.87488 3H17.9999C18.5832 3 19.0625 3.18733 19.4379 3.562C19.8125 3.93733 19.9999 4.41667 19.9999 5V18C19.9999 18.55 19.8125 19.021 19.4379 19.413C19.0625 19.8043 18.5832 20 17.9999 20H9.99988ZM5.14988 12.6C6.29988 12.6 7.24588 12.2293 7.98788 11.488C8.72921 10.746 9.09988 9.78333 9.09988 8.6C9.09988 8.46667 9.09588 8.34567 9.08788 8.237C9.07921 8.129 9.05821 8.01667 9.02488 7.9H5.07488V9.45H7.29988C7.16654 9.91667 6.91221 10.279 6.53688 10.537C6.16221 10.7957 5.70821 10.925 5.17488 10.925C4.52488 10.925 3.96654 10.6917 3.49988 10.225C3.03321 9.75833 2.79988 9.18333 2.79988 8.5C2.79988 7.81667 3.03321 7.24167 3.49988 6.775C3.96654 6.30833 4.52488 6.075 5.17488 6.075C5.47488 6.075 5.75821 6.129 6.02488 6.237C6.29154 6.34567 6.53321 6.50833 6.74988 6.725L7.97488 5.55C7.62488 5.18333 7.20421 4.9 6.71288 4.7C6.22088 4.5 5.69988 4.4 5.14988 4.4C4.03321 4.4 3.07921 4.79567 2.28788 5.587C1.49588 6.379 1.09988 7.35 1.09988 8.5C1.09988 9.65 1.49588 10.6207 2.28788 11.412C3.07921 12.204 4.03321 12.6 5.14988 12.6ZM11.8499 13.1L12.3999 12.575C12.1665 12.2917 11.9542 12.0167 11.7629 11.75C11.5709 11.4833 11.3832 11.2 11.1999 10.9L11.8499 13.1ZM13.0999 11.825C13.5665 11.275 13.9209 10.75 14.1629 10.25C14.4042 9.75 14.5665 9.35833 14.6499 9.075H10.6749L10.9749 10.125H11.9749C12.1082 10.375 12.2665 10.646 12.4499 10.938C12.6332 11.2293 12.8499 11.525 13.0999 11.825ZM10.9999 19H17.9999C18.2999 19 18.5415 18.904 18.7249 18.712C18.9082 18.5207 18.9999 18.2833 18.9999 18V5C18.9999 4.7 18.9082 4.45833 18.7249 4.275C18.5415 4.09167 18.2999 4 17.9999 4H9.17488L10.3499 8.05H12.3249V7H13.3499V8.05H16.9999V9.075H15.7249C15.5582 9.70833 15.3082 10.325 14.9749 10.925C14.6415 11.525 14.2499 12.0833 13.7999 12.6L16.5249 15.275L15.7999 16L13.0999 13.3L12.1999 14.225L12.9999 17L10.9999 19Z" fill="#3657CB"/>
</svg>
