<svg width="20" height="20" viewBox="0 0 20 20" fill="none" xmlns="http://www.w3.org/2000/svg">
<mask id="mask0_5_159" style="mask-type:alpha" maskUnits="userSpaceOnUse" x="0" y="0" width="20" height="20">
<rect width="20" height="20" fill="#3657CB"/>
</mask>
<g mask="url(#mask0_5_159)">
<path d="M2.5 17.5C2.04167 17.5 1.64945 17.337 1.32334 17.0109C0.996669 16.6842 0.833336 16.2917 0.833336 15.8334V5.00004C0.833336 4.54171 0.996669 4.14949 1.32334 3.82337C1.64945 3.49671 2.04167 3.33337 2.5 3.33337H17.5C17.9583 3.33337 18.3508 3.49671 18.6775 3.82337C19.0036 4.14949 19.1667 4.54171 19.1667 5.00004V15.8334C19.1667 16.2917 19.0036 16.6842 18.6775 17.0109C18.3508 17.337 17.9583 17.5 17.5 17.5H2.5ZM2.5 15.8334H17.5V5.00004H2.5V15.8334ZM7.5 8.33337H9.16667V6.66671H7.5V8.33337ZM4.16667 8.33337H5.83334V6.66671H4.16667V8.33337ZM6.66667 14.1667H13.3333V13.3334H6.66667V14.1667ZM10.8333 8.33337H12.5V6.66671H10.8333V8.33337ZM7.5 11.6667H9.16667V10H7.5V11.6667ZM4.16667 11.6667H5.83334V10H4.16667V11.6667ZM10.8333 11.6667H12.5V10H10.8333V11.6667ZM14.1667 8.33337H15.8333V6.66671H14.1667V8.33337ZM14.1667 11.6667H15.8333V10H14.1667V11.6667Z" fill="url(#paint0_linear_5_159)"/>
</g>
<defs>
<linearGradient id="paint0_linear_5_159" x1="10" y1="3.33337" x2="10" y2="17.5" gradientUnits="userSpaceOnUse">
<stop stop-color="#3657CB"/>
<stop offset="1" stop-color="#1F388E"/>
</linearGradient>
</defs>
</svg>
